<svg xmlns="http://www.w3.org/2000/svg" viewBox="0 0 32 32" fill="none">
  <!-- Background -->
  <rect width="32" height="32" rx="6" fill="#080c12"/>
  <!-- Flame shape — orbital cyan -->
  <path d="M16 4C16 4 10 10 10 17C10 20.3 12.7 23 16 23C19.3 23 22 20.3 22 17C22 14.5 20.5 12.3 20.5 12.3C20.5 12.3 19.8 15 18 16C18 16 19 13 17.5 10C17.5 10 17 13 15 14C15 14 17 11 16 4Z" fill="#0ea5e9"/>
  <!-- Inner glow core -->
  <path d="M16 14C16 14 13.5 16.5 13.5 18.5C13.5 20.2 14.6 21.5 16 21.5C17.4 21.5 18.5 20.2 18.5 18.5C18.5 16.5 16 14 16 14Z" fill="#38bdf8" opacity="0.7"/>
  <!-- Bottom dot — orbital marker -->
  <circle cx="16" cy="26" r="1.5" fill="#0ea5e9" opacity="0.6"/>
</svg>
